<svg width="23" height="21" viewBox="0 0 23 21" fill="none" xmlns="http://www.w3.org/2000/svg">
<path d="M8.07139 8.14286C10.2411 8.14286 12 6.54387 12 4.57143C12 2.59899 10.2411 1 8.07139 1C5.90171 1 4.14282 2.59899 4.14282 4.57143C4.14282 6.54387 5.90171 8.14286 8.07139 8.14286Z" stroke="black" stroke-width="1.5" stroke-linecap="round" stroke-linejoin="round"/>
<path d="M8.07143 18.1427H1V17.3683C1.01251 16.2793 1.32839 15.2112 1.91814 14.2634C2.5079 13.3156 3.35227 12.5191 4.3724 11.9484C5.39254 11.3777 6.55514 11.0514 7.75161 10.9999C7.85828 10.9953 7.96492 10.9929 8.07143 10.9927C8.17794 10.9929 8.28459 10.9953 8.39126 10.9999C9.58773 11.0514 10.7503 11.3777 11.7705 11.9484C12.3571 12.2766 12.8856 12.6794 13.341 13.1427" stroke="black" stroke-width="1.5" stroke-linecap="round" stroke-linejoin="round"/>
<path d="M21.4285 11.7141L14.9542 19.5713L10.6328 16.6284" stroke="black" stroke-width="1.5" stroke-linecap="round" stroke-linejoin="round"/>
</svg>
