<svg width="22" height="21" viewBox="0 0 22 21" fill="none" xmlns="http://www.w3.org/2000/svg">
<path d="M7.75 8.14286C9.82107 8.14286 11.5 6.54387 11.5 4.57143C11.5 2.59899 9.82107 1 7.75 1C5.67893 1 4 2.59899 4 4.57143C4 6.54387 5.67893 8.14286 7.75 8.14286Z" stroke="black" stroke-width="1.5" stroke-linecap="round" stroke-linejoin="round"/>
<path d="M10 18.1427H1V17.3683C1.01194 16.2793 1.31347 15.2112 1.87641 14.2634C2.43936 13.3156 3.24535 12.5191 4.21911 11.9484C5.19288 11.3777 6.30264 11.0514 7.44472 10.9999C8.58682 10.9484 9.72398 11.1734 10.75 11.654" stroke="black" stroke-width="1.5" stroke-linecap="round" stroke-linejoin="round"/>
<path d="M16 11V19.5714" stroke="black" stroke-width="1.5" stroke-linecap="round" stroke-linejoin="round"/>
<path d="M11.5 15.2856H20.5" stroke="black" stroke-width="1.5" stroke-linecap="round" stroke-linejoin="round"/>
</svg>
