<svg width="26" height="26" viewBox="0 0 26 26" fill="none" xmlns="http://www.w3.org/2000/svg">
<path d="M22.9452 14.2675C22.9954 13.8612 23.0288 13.4388 23.0288 13C23.0288 12.5612 22.9954 12.1388 22.9285 11.7325L25.7533 9.5875C26.004 9.3925 26.0709 9.035 25.9204 8.75875L23.2461 4.2575C23.079 3.965 22.7279 3.8675 22.4271 3.965L19.1009 5.265C18.3988 4.745 17.6634 4.3225 16.8444 3.9975L16.3429 0.5525C16.2928 0.2275 16.0086 0 15.6744 0H10.3257C9.99136 0 9.72392 0.2275 9.67378 0.5525L9.17234 3.9975C8.35332 4.3225 7.60116 4.76125 6.91586 5.265L3.58964 3.965C3.28877 3.85125 2.93776 3.965 2.77062 4.2575L0.0962688 8.75875C-0.070878 9.05125 -0.00401906 9.3925 0.263416 9.5875L3.0882 11.7325C3.02134 12.1388 2.97119 12.5775 2.97119 13C2.97119 13.4225 3.00462 13.8612 3.07148 14.2675L0.246701 16.4125C-0.00401946 16.6075 -0.070878 16.965 0.0795541 17.2412L2.7539 21.7425C2.92105 22.035 3.27206 22.1325 3.57292 22.035L6.89914 20.735C7.60116 21.255 8.33661 21.6775 9.15562 22.0025L9.65707 25.4475C9.72392 25.7725 9.99136 26 10.3257 26H15.6744C16.0086 26 16.2928 25.7725 16.3262 25.4475L16.8277 22.0025C17.6467 21.6775 18.3988 21.2388 19.0841 20.735L22.4104 22.035C22.7112 22.1488 23.0622 22.035 23.2294 21.7425L25.9037 17.2412C26.0709 16.9487 26.004 16.6075 25.7366 16.4125L22.9452 14.2675ZM13 17.875C10.2421 17.875 7.9856 15.6812 7.9856 13C7.9856 10.3188 10.2421 8.125 13 8.125C15.7579 8.125 18.0144 10.3188 18.0144 13C18.0144 15.6812 15.7579 17.875 13 17.875Z" fill="black"/>
</svg>
