<svg width="21" height="20" viewBox="0 0 21 20" fill="none" xmlns="http://www.w3.org/2000/svg">
<g clip-path="url(#clip0_1_1155)">
<path d="M7.5 7.85709C9.57107 7.85709 11.25 6.2581 11.25 4.28566C11.25 2.31322 9.57107 0.714233 7.5 0.714233C5.42893 0.714233 3.75 2.31322 3.75 4.28566C3.75 6.2581 5.42893 7.85709 7.5 7.85709Z" stroke="black" stroke-width="1.5" stroke-linecap="round" stroke-linejoin="round"/>
<path d="M11.25 17.8571H0.75V17.0827C0.761942 15.9937 1.06347 14.9255 1.62641 13.9777C2.18935 13.0299 2.99535 12.2335 3.96911 11.6628C4.94287 11.0921 6.05264 10.7657 7.19472 10.7142C7.29654 10.7096 7.39833 10.7072 7.5 10.707C7.60167 10.7072 7.70347 10.7096 7.80529 10.7142C8.78064 10.7582 9.73239 11.0026 10.596 11.4285" stroke="black" stroke-width="1.5" stroke-linecap="round" stroke-linejoin="round"/>
<path d="M20.25 13.2285L13.89 19.2857" stroke="black" stroke-width="1.5" stroke-linecap="round" stroke-linejoin="round"/>
<path d="M13.89 13.2285L20.25 19.2857" stroke="black" stroke-width="1.5" stroke-linecap="round" stroke-linejoin="round"/>
</g>
<defs>
<clipPath id="clip0_1_1155">
<rect width="21" height="20" fill="white"/>
</clipPath>
</defs>
</svg>
