<svg width="376" height="400" viewBox="0 0 376 400" fill="none" xmlns="http://www.w3.org/2000/svg">
<path d="M330.33 219.265L330.236 220.082L330.872 220.602L371.24 253.593L371.254 253.605L371.27 253.617C374.507 256.127 375.381 260.55 373.289 264.454C373.287 264.458 373.286 264.461 373.284 264.464L334.621 333.673L334.615 333.684L334.609 333.695C332.548 337.53 328.281 338.966 324.657 337.514C324.655 337.513 324.652 337.511 324.649 337.51L276.563 317.522L275.752 317.185L275.06 317.726C265.236 325.407 254.472 332.082 242.769 337.02L241.981 337.353L241.865 338.201L234.613 391.186L234.609 391.216L234.606 391.245C234.2 395.441 230.768 398.385 226.675 398.385H149.325C145.312 398.385 141.999 395.505 141.139 391.144L133.893 338.201L133.777 337.353L132.989 337.02C121.282 332.08 110.761 325.654 100.702 317.73L100.01 317.184L99.1953 317.522L51.1377 337.498C47.412 338.761 43.1709 337.457 41.1496 333.695L41.1438 333.684L41.1377 333.673L2.47624 264.467C0.615537 260.806 1.48705 256.106 4.51921 253.592C4.52134 253.591 4.52348 253.589 4.52561 253.587L45.3626 220.608L46.036 220.064L45.9036 219.208C44.9495 213.042 44.471 206.372 44.471 199.944C44.471 193.55 45.1851 186.884 46.1453 180.679L46.2777 179.824L45.6044 179.28L4.75368 146.289L4.74213 146.28L4.73041 146.271C1.4932 143.76 0.618677 139.338 2.71043 135.434C2.71232 135.431 2.71422 135.427 2.71613 135.423L41.3795 66.2146L41.3855 66.2038L41.3913 66.1929C43.4522 62.3573 47.7192 60.9216 51.343 62.3741C51.3456 62.3751 51.3483 62.3762 51.351 62.3773L99.4371 82.365L100.248 82.7021L100.94 82.1613C110.764 74.4804 121.528 67.8059 133.23 62.8674L134.019 62.5346L134.135 61.6865L141.385 8.71338C141.385 8.71173 141.386 8.71008 141.386 8.70843C142.014 4.39645 145.293 1.50294 149.325 1.50294H226.675C230.753 1.50294 234.235 4.44353 234.856 8.70844C234.856 8.71009 234.856 8.71174 234.857 8.71338L242.107 61.6865L242.223 62.5346L243.011 62.8674C254.718 67.8079 265.239 74.2334 275.298 82.1578L275.99 82.7035L276.805 82.365L324.862 62.3893C328.588 61.126 332.829 62.431 334.85 66.1929L334.856 66.2038L334.862 66.2146L373.524 135.42C375.384 139.082 374.513 143.781 371.482 146.295C371.479 146.296 371.477 146.298 371.474 146.3L330.637 179.28L329.964 179.824L330.096 180.679C331.051 186.846 331.529 193.267 331.529 199.944C331.529 206.62 331.051 213.059 330.33 219.265ZM113.981 199.944C113.981 241.964 147.239 276.426 188 276.426C228.761 276.426 262.019 241.964 262.019 199.944C262.019 157.923 228.761 123.462 188 123.462C147.239 123.462 113.981 157.923 113.981 199.944Z" fill="#35B2DA" stroke="white" stroke-width="3"/>
</svg>
