<svg width="19" height="30" viewBox="0 0 19 30" fill="none" xmlns="http://www.w3.org/2000/svg">
<path d="M14.8398 3.7777C12.9427 1.39092 10.0604 0 7.01149 0H2.36743C1.06534 0 0.0118374 1.34032 0.0118374 2.97849L0 26.8064C0 28.4446 1.05351 29.7849 2.3556 29.7849H16.572C17.8741 29.7849 18.9395 28.4446 18.9395 26.8064V12.4256C18.9395 10.1657 18.174 7.97243 16.7678 6.2033L14.8398 3.7777ZM14.2046 22.3387C14.2046 23.1612 13.5378 23.8279 12.7153 23.8279H6.22411C5.40162 23.8279 4.73487 23.1612 4.73487 22.3387V22.3387C4.73487 21.5162 5.40162 20.8495 6.22411 20.8495H12.7153C13.5378 20.8495 14.2046 21.5162 14.2046 22.3387V22.3387ZM14.2046 16.3817C14.2046 17.2042 13.5378 17.871 12.7153 17.871H6.22411C5.40162 17.871 4.73487 17.2042 4.73487 16.3817V16.3817C4.73487 15.5592 5.40162 14.8925 6.22411 14.8925H12.7153C13.5378 14.8925 14.2046 15.5592 14.2046 16.3817V16.3817ZM12.7726 10.4247C11.6022 10.4247 10.6534 9.47597 10.6534 8.30562V8.30562C10.6534 6.29912 13.183 5.41629 14.4315 6.98704V6.98704C15.5352 8.37562 14.5463 10.4247 12.7726 10.4247V10.4247Z" fill="black"/>
</svg>
