<svg width="21" height="21" viewBox="0 0 21 21" fill="none" xmlns="http://www.w3.org/2000/svg">
<path d="M7.5 8.25C9.57107 8.25 11.25 6.57107 11.25 4.5C11.25 2.42893 9.57107 0.75 7.5 0.75C5.42893 0.75 3.75 2.42893 3.75 4.5C3.75 6.57107 5.42893 8.25 7.5 8.25Z" stroke="black" stroke-width="1.5" stroke-linecap="round" stroke-linejoin="round"/>
<path d="M9.75 18.75H0.75V17.9368C0.761942 16.7934 1.06347 15.6718 1.62641 14.6767C2.18935 13.6815 2.99535 12.8452 3.96911 12.246C4.94287 11.6467 6.05264 11.3041 7.19472 11.25C7.29654 11.2452 7.39833 11.2427 7.5 11.2424C7.60167 11.2427 7.70347 11.2452 7.80529 11.25C8.94738 11.3041 10.0571 11.6467 11.0309 12.246C11.5909 12.5905 12.0953 13.0135 12.53 13.5" stroke="black" stroke-width="1.5" stroke-linecap="round" stroke-linejoin="round"/>
<path d="M12.75 17.25H20.25" stroke="black" stroke-width="1.5" stroke-linecap="round" stroke-linejoin="round"/>
</svg>
