<svg width="26" height="27" viewBox="0 0 26 27" fill="none" xmlns="http://www.w3.org/2000/svg">
<path d="M19.5 8.96092C19.5 7.17847 18.8152 5.46902 17.5962 4.20863C16.3772 2.94824 14.7239 2.24017 13 2.24017C11.2761 2.24017 9.62277 2.94824 8.40379 4.20863C7.1848 5.46902 6.49998 7.17847 6.49998 8.96092C6.49998 16.8018 3.24998 19.0421 3.24998 19.0421H22.75C22.75 19.0421 19.5 16.8018 19.5 8.96092Z" stroke="white" stroke-width="2" stroke-linecap="round" stroke-linejoin="round"/>
<path d="M14.8742 23.5227C14.6837 23.8621 14.4103 24.1439 14.0814 24.3398C13.7525 24.5357 13.3796 24.6388 13 24.6388C12.6204 24.6388 12.2475 24.5357 11.9186 24.3398C11.5897 24.1439 11.3163 23.8621 11.1258 23.5227" stroke="white" stroke-width="2" stroke-linecap="round" stroke-linejoin="round"/>
</svg>
