<svg width="19" height="30" viewBox="0 0 19 30" fill="none" xmlns="http://www.w3.org/2000/svg">
<path d="M14.8873 3.78977C12.9841 1.39536 10.0925 0 7.03391 0H2.375C1.06875 0 0.0118753 1.34461 0.0118753 2.98802L0 26.8921C0 28.5355 1.05688 29.8801 2.36313 29.8801H16.625C17.9313 29.8801 19 28.5355 19 26.8921V12.4653C19 10.1982 18.2321 7.99791 16.8214 6.22313L14.8873 3.78977ZM14.25 22.4101C14.25 23.2352 13.5811 23.9041 12.756 23.9041H6.24401C5.41889 23.9041 4.75 23.2352 4.75 22.4101C4.75 21.585 5.41889 20.9161 6.24401 20.9161H12.756C13.5811 20.9161 14.25 21.585 14.25 22.4101ZM14.25 16.4341C14.25 17.2592 13.5811 17.9281 12.756 17.9281H6.24401C5.41889 17.9281 4.75 17.2592 4.75 16.4341C4.75 15.609 5.41889 14.9401 6.24401 14.9401H12.756C13.5811 14.9401 14.25 15.609 14.25 16.4341ZM12.8134 10.4581C11.6393 10.4581 10.6875 9.50626 10.6875 8.33217C10.6875 6.31926 13.2251 5.4336 14.4776 7.00938C15.5848 8.40239 14.5928 10.4581 12.8134 10.4581Z" fill="white"/>
</svg>
