<svg width="34" height="33" viewBox="0 0 34 33" fill="none" xmlns="http://www.w3.org/2000/svg">
<g clip-path="url(#clip0_1_684)">
<path d="M17 18.8571C20.3532 18.8571 23.0714 16.2188 23.0714 12.9643C23.0714 9.70973 20.3532 7.07141 17 7.07141C13.6468 7.07141 10.9286 9.70973 10.9286 12.9643C10.9286 16.2188 13.6468 18.8571 17 18.8571Z" stroke="#292782" stroke-linecap="round" stroke-linejoin="round"/>
<path d="M6.63 28.05C7.71374 26.3234 9.23685 24.8965 11.0529 23.9063C12.869 22.9161 14.917 22.3961 17 22.3961C19.083 22.3961 21.131 22.9161 22.9471 23.9063C24.7632 24.8965 26.2863 26.3234 27.37 28.05" stroke="#292782" stroke-linecap="round" stroke-linejoin="round"/>
<path d="M17 31.8214C25.7182 31.8214 32.7857 24.9618 32.7857 16.5C32.7857 8.0382 25.7182 1.17856 17 1.17856C8.28179 1.17856 1.21429 8.0382 1.21429 16.5C1.21429 24.9618 8.28179 31.8214 17 31.8214Z" stroke="#292782" stroke-linecap="round" stroke-linejoin="round"/>
</g>
<defs>
<clipPath id="clip0_1_684">
<rect width="34" height="33" fill="white"/>
</clipPath>
</defs>
</svg>
