<svg width="36" height="35" viewBox="0 0 36 35" fill="none" xmlns="http://www.w3.org/2000/svg">
<path d="M17.7857 19.6786C21.1388 19.6786 23.8571 17.0403 23.8571 13.7857C23.8571 10.5312 21.1388 7.89288 17.7857 7.89288C14.4325 7.89288 11.7142 10.5312 11.7142 13.7857C11.7142 17.0403 14.4325 19.6786 17.7857 19.6786Z" stroke="#292782" stroke-width="3" stroke-linecap="round" stroke-linejoin="round"/>
<path d="M7.41577 28.8715C8.4995 27.1449 10.0226 25.7179 11.8387 24.7278C13.6548 23.7376 15.7028 23.2175 17.7858 23.2175C19.8688 23.2175 21.9168 23.7376 23.7328 24.7278C25.5489 25.7179 27.072 27.1449 28.1558 28.8715" stroke="#292782" stroke-width="3" stroke-linecap="round" stroke-linejoin="round"/>
<path d="M17.7857 32.6429C26.5039 32.6429 33.5714 25.7832 33.5714 17.3214C33.5714 8.85964 26.5039 2 17.7857 2C9.0675 2 2 8.85964 2 17.3214C2 25.7832 9.0675 32.6429 17.7857 32.6429Z" stroke="#292782" stroke-width="3" stroke-linecap="round" stroke-linejoin="round"/>
</svg>
