<svg width="239" height="260" viewBox="0 0 239 260" fill="none" xmlns="http://www.w3.org/2000/svg">
<g clip-path="url(#clip0_1_307)">
<path d="M187.786 102.143H51.2143C41.786 102.143 34.1429 110.458 34.1429 120.714V232.143C34.1429 242.4 41.786 250.714 51.2143 250.714H187.786C197.214 250.714 204.857 242.4 204.857 232.143V120.714C204.857 110.458 197.214 102.143 187.786 102.143Z" stroke="#35B2DA" stroke-width="2" stroke-linecap="round" stroke-linejoin="round"/>
<path d="M179.25 102.143V74.2856C179.25 57.0466 172.955 40.5136 161.75 28.3237C150.544 16.1338 135.347 9.28564 119.5 9.28564C103.653 9.28564 88.4557 16.1338 77.2504 28.3237C66.0451 40.5136 59.75 57.0466 59.75 74.2856V102.143" stroke="#35B2DA" stroke-width="20" stroke-linecap="round" stroke-linejoin="round"/>
<path d="M119.5 185.714C124.214 185.714 128.036 181.557 128.036 176.429C128.036 171.3 124.214 167.143 119.5 167.143C114.786 167.143 110.964 171.3 110.964 176.429C110.964 181.557 114.786 185.714 119.5 185.714Z" stroke="#35B2DA" stroke-width="1.5" stroke-linecap="round" stroke-linejoin="round"/>
<path d="M34 112C34 106.477 38.4772 102 44 102H195C200.523 102 205 106.477 205 112V241C205 246.523 200.523 251 195 251H44C38.4772 251 34 246.523 34 241V112Z" fill="#35B2DA"/>
<path d="M127.5 185C127.5 188.997 123.847 192.5 119 192.5C114.153 192.5 110.5 188.997 110.5 185C110.5 181.003 114.153 177.5 119 177.5C123.847 177.5 127.5 181.003 127.5 185Z" fill="black" stroke="black" stroke-width="3"/>
</g>
<defs>
<clipPath id="clip0_1_307">
<rect width="239" height="260" fill="white"/>
</clipPath>
</defs>
</svg>
