<svg width="239" height="260" viewBox="0 0 239 260" fill="none" xmlns="http://www.w3.org/2000/svg">
<g clip-path="url(#clip0_1_157)">
<path d="M187.786 102.143H51.2143C41.786 102.143 34.1429 110.458 34.1429 120.714V232.143C34.1429 242.4 41.786 250.714 51.2143 250.714H187.786C197.214 250.714 204.857 242.4 204.857 232.143V120.714C204.857 110.458 197.214 102.143 187.786 102.143Z" stroke="#35B2DA" stroke-width="2" stroke-linecap="round" stroke-linejoin="round"/>
<path d="M179.25 102.143V74.2858C179.25 57.0467 172.955 40.5137 161.75 28.3238C150.544 16.134 135.347 9.28577 119.5 9.28577C103.653 9.28577 88.4557 16.134 77.2504 28.3238C66.0451 40.5137 59.75 57.0467 59.75 74.2858V102.143" stroke="#35B2DA" stroke-width="20" stroke-linecap="round" stroke-linejoin="round"/>
<path d="M119.5 185.714C124.214 185.714 128.036 181.557 128.036 176.429C128.036 171.3 124.214 167.143 119.5 167.143C114.786 167.143 110.964 171.3 110.964 176.429C110.964 181.557 114.786 185.714 119.5 185.714Z" stroke="#35B2DA" stroke-width="1.5" stroke-linecap="round" stroke-linejoin="round"/>
<path d="M34 112C34 106.477 38.4772 102 44 102H195C200.523 102 205 106.477 205 112V241C205 246.523 200.523 251 195 251H44C38.4772 251 34 246.523 34 241V112Z" fill="#35B2DA"/>
<mask id="path-5-inside-1_1_157" fill="white">
<ellipse cx="119" cy="185" rx="10" ry="9"/>
</mask>
<ellipse cx="119" cy="185" rx="10" ry="9" fill="black"/>
<path d="M117 185C117 183.735 117.595 182.848 118.043 182.444C118.471 182.059 118.843 182 119 182V206C129.93 206 141 197.756 141 185H117ZM119 182C119.157 182 119.529 182.059 119.957 182.444C120.405 182.848 121 183.735 121 185H97C97 197.756 108.07 206 119 206V182ZM121 185C121 186.265 120.405 187.152 119.957 187.556C119.529 187.941 119.157 188 119 188V164C108.07 164 97 172.244 97 185H121ZM119 188C118.843 188 118.471 187.941 118.043 187.556C117.595 187.152 117 186.265 117 185H141C141 172.244 129.93 164 119 164V188Z" fill="black" mask="url(#path-5-inside-1_1_157)"/>
</g>
<defs>
<clipPath id="clip0_1_157">
<rect width="239" height="260" fill="white"/>
</clipPath>
</defs>
</svg>
